<svg data-v-0dd9719b="" version="1.0" xmlns="http://www.w3.org/2000/svg" xmlns:xlink="http://www.w3.org/1999/xlink" width="100%" height="100%" viewBox="0 0 340.000000 250.000000" preserveAspectRatio="xMidYMid meet" color-interpolation-filters="sRGB" style="margin: auto;"> <rect data-v-0dd9719b="" x="0" y="0" width="100%" height="100%" fill="#fff" fill-opacity="1" class="background"></rect> <rect data-v-0dd9719b="" x="0" y="0" width="100%" height="100%" fill="url(#watermark)" fill-opacity="1" class="watermarklayer"></rect> <g data-v-0dd9719b="" fill="#333" class="icon-text-wrapper icon-svg-group iconsvg" transform="translate(49.625,96.54874610900879)"><g class="iconsvg-imagesvg" transform="translate(0,5.144487380981445)"><g><rect fill="#333" fill-opacity="0" stroke-width="2" x="0" y="0" width="60" height="46.613527245606676" class="image-rect"></rect> <svg x="0" y="0" width="60" height="46.613527245606676" filtersec="colorsb338832929" class="image-svg-svg primary" style="overflow: visible;"><svg xmlns="http://www.w3.org/2000/svg" viewBox="0 -0.0033168792724609375 113.70999908447266 88.34025573730469"><g fill-rule="evenodd"><path d="M0 10.08c34.71 13.28 46.13 8 55.45.71C77.24-6.15 86.32-3.61 98.57 21.68c-51.88-11.25-30 34.59-94.3 11.57C1.23 20.24 0 10.08 0 10.08z" fill="#4dc2cc"></path><path d="M5.37 37.76c63.78 22.4 41.05-24.34 95.28-11.48A165.52 165.52 0 0 1 108.42 50C47 31.52 69.8 78.44 13.4 62a162.83 162.83 0 0 1-8.03-24.24z" fill="#f08100"></path><path d="M15.6 66.71c53.93 14.73 31.91-31.36 93.9-12.28 3 12.9 4.21 22.95 4.21 22.95-30.85-10.33-42.44-5.71-51.27.86C39.8 95.08 27.5 90.6 15.6 66.71z" fill="#ce4828"></path></g></svg></svg> <!----></g></g> <g transform="translate(67,0)"><g data-gra="path-name" fill-rule="" class="tp-name iconsvg-namesvg" transform="translate(0,0)"><g transform="scale(1)"><g><path d="M32.17-4.54L32.17-27.68 40.63-27.68 40.63 4.54 32.17 4.54 32.17 2.29 4.59 2.29 4.59-27.81 13.05-27.81 13.05-4.54 17.95-4.54 17.95-36.13 26.86-36.13 26.86-4.54 32.17-4.54ZM87.7-28.75L75.42-28.75 75.47-25.2 85.81-25.2 85.81 5 78.21 5 78.21 2.52 56.79 2.52 56.79 5 49.14 5 49.14-25.2 59.31-25.2Q59.31-27.45 59.27-28.75L59.27-28.75 46.89-28.75 46.89-34.88 87.7-34.88 87.7-28.75ZM66.28-25.2L68.36-25.2 68.36-28.75 66.28-28.75 66.28-25.2ZM59.13-19.13L56.79-19.13 56.79-11.03Q57.83-13.18 58.39-15.05 58.95-16.92 59.13-19.13L59.13-19.13ZM56.79-3.6L78.21-3.6 78.21-6.79 72.36-6.79Q70.2-6.79 69.28-8.23 68.36-9.67 68.36-12.55L68.36-12.55 68.36-19.13 65.92-19.13Q65.38-14.98 63.59-11.97 61.78-8.96 57.91-5.35L57.91-5.35 56.79-6.43 56.79-3.6ZM78.21-12.38L78.21-19.13 75.47-19.13 75.51-12.38 78.21-12.38ZM132.34-2.92L129.24 4.05Q123.75 3.24 120.11 2.27 116.46 1.3 113.63-0.09L113.63-0.09Q106.88 2.11 94.86 3.55L94.86 3.55 93.92 0.49Q101.97-1.4 107.82-3.82L107.82-3.82Q105.89-5.35 102.83-8.05L102.83-8.05Q100.35-5.94 96.7-4.05L96.7-4.05 94.23-6.61Q96.89-9.86 98.44-11.97 99.99-14.08 101.39-16.38L101.39-16.38 93.92-16.38 93.92-21.6 108.27-21.6 108.27-23.18 96.57-23.18 96.66-28.04 108.27-28.04 108.27-29.61 95.53-29.61 95.53-34.56 108.27-34.56 108.27-36.95 116.73-36.95 116.73-34.6 129.47-34.6 129.47-29.61 116.73-29.61 116.73-28.08 128.38-28.08 128.3-23.18 116.73-23.18 116.73-21.6 131-21.6 131-16.38 108.22-16.38 109.39-15.88Q108.77-14.94 108.67-14.8L108.67-14.8 122.85-14.85 123.62-15.79 130.41-13Q126.85-7.51 122.53-4.46L122.53-4.46Q126.63-3.46 132.34-2.92L132.34-2.92ZM107.59-9.67L108.67-9.18Q109.62-8.82 111.24-8.14 112.86-7.47 114.03-7.02L114.03-7.02Q116.06-8.32 117.77-9.72L117.77-9.72 107.59-9.67ZM178.34-23.45L173.93-23.45 173.93-20.34 177.48-20.34 177.48-14.67 173.93-14.67 173.93-11.79 177.48-11.79 177.48-6.12 173.93-6.12 173.93-2.75 178.02-2.75 178.02 2.92 164.79 2.97 164.79 4.54 158.4 4.54 158.44-22 156.91-20.47 154.98-22.14Q157-26.14 157.97-28.93 158.94-31.72 160.34-36.85L160.34-36.85 166.81-34.65Q165.65-32.13 164.79-30.69L164.79-30.69 164.79-29.07 168.8-29.07Q168.12-32.31 167-34.88L167-34.88 170.41-36.36Q171.94-35.1 173.09-33.75 174.24-32.4 175.09-30.69L175.09-30.69 171.45-29.11 178.34-29.11 178.34-23.45ZM154.35-29.47L154.35-20.38 157.19-20.38 157.19-15.16 154.35-15.16 154.35-1.21Q154.35 4.54 150.79 4.54L150.79 4.54 146.97 4.54 146.43 0.58 144.81 0.58 144.81-0.99 148-0.99 148-8.55Q146.21-5.63 144.2-3.53 142.2-1.44 139.28 0.81L139.28 0.81 136.66-1.71Q139-5.22 140.51-8.3 142.02-11.38 143.46-15.12L143.46-15.12 140-15.12Q139.54-14.58 138.69-13.59L138.69-13.59 136.22-15.03Q137.56-18.54 138.33-21.35 139.09-24.16 139.63-27.95L139.63-27.95 146.21-26.05Q144.99-22.68 143.73-20.34L143.73-20.34 148.05-20.38 148.05-29.47 138.01-29.43 138.01-35.14 156.74-35.19 156.74-29.47 154.35-29.47ZM164.79-20.29L167.85-20.29 167.89-23.4 164.79-23.4 164.79-20.29ZM164.79-11.74L167.85-11.74 167.85-14.63 164.79-14.63 164.79-11.74ZM164.79-2.7L167.81-2.7 167.85-6.08 164.79-6.08 164.79-2.7Z" transform="translate(-4.590000152587891, 36.95000076293945)"></path></g> <!----> <!----> <!----> <!----> <!----> <!----> <!----></g></g> <g data-gra="path-slogan" fill-rule="" class="tp-slogan iconsvg-slogansvg" fill="#333" transform="translate(44.73417663574219,47.95000076293945)"><!----> <!----> <g transform="scale(1, 1)"><g transform="scale(1)"><path d="M7.17-6.09L7.17-6.09L6.09-6.09Q6-7.73 3.94-7.83L3.94-7.83Q2.02-7.78 2.02-6.33L2.02-6.33Q2.02-5.39 3.05-5.25L3.05-5.25L5.48-4.69Q7.41-4.22 7.41-2.34L7.41-2.34Q7.36 0.05 4.03 0.14L4.03 0.14Q2.20 0.14 1.45-0.61L1.45-0.61Q0.52-1.31 0.56-2.77L0.56-2.77L1.69-2.77Q1.73-0.80 4.03-0.75L4.03-0.75Q6.28-0.80 6.33-2.20L6.33-2.20Q6.52-3.38 4.45-3.75L4.45-3.75L2.67-4.13Q0.84-4.64 0.84-6.19L0.84-6.19Q0.98-8.72 3.84-8.81L3.84-8.81Q7.08-8.81 7.17-6.09ZM10.03-5.06L14.53-5.06L14.53-8.58L15.70-8.58L15.70 0L14.53 0L14.53-3.98L10.03-3.98L10.03 0L8.86 0L8.86-8.58L10.03-8.58L10.03-5.06ZM23.16 0L22.31-2.48L18.84-2.48L17.95 0L16.78 0L20.02-8.58L21.33-8.58L24.42 0L23.16 0ZM20.58-7.31L19.22-3.52L21.89-3.52L20.63-7.31L20.58-7.31ZM26.86-8.58L31.17-1.64L31.17-8.58L32.30-8.58L32.30 0L30.98 0L26.63-6.94L26.58-6.94L26.58 0L25.45 0L25.45-8.58L26.86-8.58ZM40.83-8.58L37.92-4.41L40.97 0L39.52 0L37.17-3.52L34.83 0L33.42 0L36.52-4.41L33.61-8.58L35.06-8.58L37.22-5.30L39.42-8.58L40.83-8.58ZM42.23-8.58L43.41-8.58L43.41 0L42.23 0L42.23-8.58ZM56.95-8.58L56.95 0L55.83 0L55.83-5.06Q55.83-5.77 55.83-7.22L55.83-7.22L53.39 0L52.22 0L49.83-7.22L49.78-7.22Q49.78-6.70 49.83-5.67L49.83-5.67Q49.83-5.16 49.83-5.06L49.83-5.06L49.83 0L48.66 0L48.66-8.58L50.34-8.58L52.83-1.31L55.27-8.58L56.95-8.58ZM64.31 0L63.47-2.48L60-2.48L59.11 0L57.94 0L61.17-8.58L62.48-8.58L65.58 0L64.31 0ZM61.73-7.31L60.38-3.52L63.05-3.52L61.78-7.31L61.73-7.31ZM66.80-8.58L67.97-8.58L67.97 0L66.80 0L66.80-8.58ZM76.88-8.58L73.64-3.47L73.64 0L72.47 0L72.47-3.47L69.23-8.58L70.59-8.58L73.03-4.45L75.52-8.58L76.88-8.58ZM83.58 0L82.73-2.48L79.27-2.48L78.38 0L77.20 0L80.44-8.58L81.75-8.58L84.84 0L83.58 0ZM81-7.31L79.64-3.52L82.31-3.52L81.05-7.31L81-7.31Z" transform="translate(-0.5602678571428572, 8.8125)"></path></g></g></g></g></g><defs v-gra="od"></defs></svg>